<svg version="1.1" viewBox="0.0 0.0 720.0 720.0" fill="none" stroke="none" stroke-linecap="square" stroke-miterlimit="10" xmlns:xlink="http://www.w3.org/1999/xlink" xmlns="http://www.w3.org/2000/svg"><clipPath id="p.0"><path d="m0 0l720.0 0l0 720.0l-720.0 0l0 -720.0z" clip-rule="nonzero"/></clipPath><g clip-path="url(#p.0)"><path fill="#000000" fill-opacity="0.0" d="m0 0l720.0 0l0 720.0l-720.0 0z" fill-rule="evenodd"/><path fill="#434343" d="m0 0l720.0 0l0 720.0l-720.0 0z" fill-rule="evenodd"/><g filter="url(#shadowFilter-p.1)"><use xlink:href="#p.1" transform="matrix(1.0 0.0 0.0 1.0 20.725939370078745 13.979822572178465)"/></g><defs><filter id="shadowFilter-p.1" filterUnits="userSpaceOnUse"><feGaussianBlur in="SourceAlpha" stdDeviation="7.5" result="blur"/><feComponentTransfer in="blur" color-interpolation-filters="sRGB"><feFuncR type="linear" slope="0" intercept="0.0"/><feFuncG type="linear" slope="0" intercept="0.0"/><feFuncB type="linear" slope="0" intercept="0.0"/><feFuncA type="linear" slope="0.8" intercept="0"/></feComponentTransfer></filter></defs><g id="p.1"><path fill="#000000" fill-opacity="0.0" d="m48.43307 72.65092l311.55905 0l0 647.37006l-311.55905 0z" fill-rule="evenodd"/><path fill="#e69138" d="m148.87057 427.25092l-53.640633 0q-6.84375 0 -9.90625 -3.0625q-3.046875 -3.0625 -3.046875 -9.890625l0 -233.28123q0 -6.84375 3.046875 -9.90625q3.0625 -3.0625 9.90625 -3.0625l57.968758 0q5.75 0 9.53125 2.53125q3.78125 2.515625 7.015625 8.265625l32.40625 58.6875q1.796875 3.234375 3.0625 4.6875q1.265625 1.4375 3.421875 1.4375l3.234375 0q2.15625 0 3.421875 -1.4375q1.265625 -1.453125 3.0625 -4.6875l32.03125 -58.6875q3.25 -5.75 7.03125 -8.265625q3.78125 -2.53125 9.53125 -2.53125l58.328125 0q6.84375 0 9.890625 3.0625q3.0625 3.0625 3.0625 9.90625l0 233.28123q0 6.828125 -3.0625 9.890625q-3.046875 3.0625 -9.890625 3.0625l-55.4375 0q-6.84375 0 -9.90625 -3.0625q-3.0625 -3.0625 -3.0625 -9.890625l0 -126.734375l-21.234375 39.25q-3.25 6.125 -7.75 8.828125q-4.5 2.6875 -11.328125 2.6875l-14.40625 0q-6.84375 0 -11.34375 -2.6875q-4.5 -2.703125 -7.734375 -8.828125l-21.234375 -39.25l0 126.734375q0 6.828125 -3.0625 9.890625q-3.0625 3.0625 -9.90625 3.0625z" fill-rule="nonzero"/></g><g filter="url(#shadowFilter-p.2)"><use xlink:href="#p.2" transform="matrix(1.0 0.0 0.0 1.0 21.20120262467193 13.24798136482946)"/></g><defs><filter id="shadowFilter-p.2" filterUnits="userSpaceOnUse"><feGaussianBlur in="SourceAlpha" stdDeviation="7.5" result="blur"/><feComponentTransfer in="blur" color-interpolation-filters="sRGB"><feFuncR type="linear" slope="0" intercept="0.0"/><feFuncG type="linear" slope="0" intercept="0.0"/><feFuncB type="linear" slope="0" intercept="0.0"/><feFuncA type="linear" slope="0.8" intercept="0"/></feComponentTransfer></filter></defs><g id="p.2"><path fill="#000000" fill-opacity="0.0" d="m360.0 48.0l263.1181 0l0 672.0l-263.1181 0z" fill-rule="evenodd"/><path fill="#6aa84f" d="m475.20312 319.1938l0 46.09375l27.0 0q9.359375 0 12.59375 -4.859375q3.25 -4.875 3.25 -12.0625l0 -12.25q0 -7.203125 -3.25 -12.0625q-3.234375 -4.859375 -12.59375 -4.859375l-27.0 0zm-12.96875 194.40625l-55.4375 0q-6.84375 0 -9.90625 -3.0625q-3.046875 -3.0625 -3.046875 -9.890625l0 -233.28125q0 -6.84375 3.046875 -9.90625q3.0625 -3.0625 9.90625 -3.0625l119.890625 0q40.3125 0 55.609375 16.75q15.296875 16.734375 15.296875 43.375l0 16.5625q0 15.109375 -4.5 25.734375q-4.5 10.625 -15.65625 15.296875q19.4375 2.171875 31.5 15.859375q12.0625 13.671875 12.0625 36.34375l0 76.328125q0 6.828125 -3.0625 9.890625q-3.0625 3.0625 -9.890625 3.0625l-55.8125 0q-6.828125 0 -9.890625 -3.0625q-3.0625 -3.0625 -3.0625 -9.890625l0 -55.09375q0 -7.90625 -3.0625 -11.6875q-3.0625 -3.78125 -10.625 -3.78125l-50.390625 0l0 70.5625q0 6.828125 -3.0625 9.890625q-3.0625 3.0625 -9.90625 3.0625z" fill-rule="nonzero"/></g></g></svg>